<svg xmlns="http://www.w3.org/2000/svg" xmlns:xlink="http://www.w3.org/1999/xlink" width="60" height="45" version="1.1" viewBox="0 0 60 45"><title>ic_designer_news</title><desc>Created with Sketch.</desc><g id="Page-1" fill="none" fill-rule="evenodd" stroke="none" stroke-width="1"><g id="ic_designer_news" transform="translate(-6.000000, -14.000000)"><path id="Page" fill="#286FDC" d="M17.1627907,14 C17.1627906,13.9999999 17.1627907,59 17.1627907,59 L59.9993687,59 C63.3134259,59 66,56.319808 66,53.0010878 L66,14 C66,14.0000003 17.1627908,14.0000001 17.1627907,14 Z"/><path id="Fold" fill="#286FDC" d="M12.2015504,58.9659063 C12.2015504,58.9882607 12.2015504,59 12.2015504,59 L17.1627907,59 L17.1627907,53.8793103 C17.1627907,53.8793103 17.1562649,53.8793103 17.1436867,53.8793103 C16.92427,56.5412527 14.8400713,58.6739811 12.2015504,58.9659063 Z"/><path id="Back" fill="#0E418B" d="M6,33.7068966 C5.99999993,33.7068966 5.99999999,53.4180093 5.99999999,53.4180093 C5.99999999,56.5008576 8.50514812,59 11.5813953,59 L11.5813953,59 C14.6639149,59 17.1627907,56.5055787 17.1627907,53.4180092 C17.1627907,53.4180092 17.1627907,33.7068965 17.1627907,33.7068966 C17.1627907,33.7068966 6.00000007,33.7068965 6,33.7068966 Z"/><rect id="Line-5" width="11.163" height="3.724" x="21.969" y="47.828" fill="#1750A4"/><rect id="Line-4" width="16.899" height="3.724" x="21.969" y="42.086" fill="#1750A4"/><rect id="Line-3" width="16.899" height="15.828" x="44.295" y="29.983" fill="#1750A4"/><rect id="Line-2" width="16.899" height="3.724" x="21.969" y="36.034" fill="#1750A4"/><rect id="Line-1" width="16.899" height="3.724" x="21.969" y="29.983" fill="#1750A4"/><rect id="Headline" width="39.225" height="6.672" x="21.969" y="18.655" fill="#1750A4"/></g></g></svg>