<svg xmlns="http://www.w3.org/2000/svg" xmlns:xlink="http://www.w3.org/1999/xlink" width="60" height="60" version="1.1" viewBox="0 0 60 60"><title>Imported Layers</title><desc>Created with Sketch Beta.</desc><g id="Page-1" fill="none" fill-rule="evenodd" stroke="none" stroke-width="1"><g id="Imported-Layers" transform="translate(-6.000000, -6.000000)"><rect id="bounds" width="72" height="72" x="0" y="0"/><path id="Fill-1" fill="#DA552F" d="M66,36 C66,52.5685 52.5685,66 36,66 C19.4315,66 6,52.5685 6,36 C6,19.4315 19.4315,6 36,6 C52.5685,6 66,19.4315 66,36"/><path id="Fill-2" fill="#FFF" d="M40,21 L25.5,21 L25.5,51 L31.5,51 L31.5,42 L40,42 C45.799,42 50.5,37.299 50.5,31.5 C50.5,25.701 45.799,21 40,21 L40,21 Z M40,36 L40,36 L31.5,36 L31.5,27 L40,27 C42.48525,27 44.49975,29.01475 44.49975,31.5 C44.49975,33.98525 42.48525,35.99975 40,36 L40,36 Z"/></g></g></svg>